<svg height="378" node-id="1" sillyvg="true" template-height="378" template-width="282" version="1.1" viewBox="0 0 282 378" width="282" xmlns="http://www.w3.org/2000/svg" xmlns:xlink="http://www.w3.org/1999/xlink"><defs node-id="54"></defs><g node-id="144"><g node-id="145"><g node-id="146"><path d="M 45.90 129.90 L 28.80 138.00 L 176.40 191.90 L 253.80 126.90 L 117.10 98.70 L 45.90 129.90 Z" fill="#f5ae78" fill-rule="nonzero" group-id="1,2,3" node-id="60" stroke="#231815" stroke-linecap="round" stroke-width="3" target-height="93.2" target-width="225" target-x="28.8" target-y="98.7"/><path d="M 45.00 134.80 L 173.80 178.30 L 232.90 130.40 L 116.30 104.00 L 45.00 134.80 Z" fill="#db5c39" fill-rule="nonzero" group-id="1,2,3" node-id="62" stroke="#231815" stroke-linecap="round" stroke-width="3" target-height="74.3" target-width="187.9" target-x="45" target-y="104"/><path d="M 28.80 138.00 L 33.10 301.80 L 176.40 376.40 L 176.40 191.90 L 28.80 138.00 Z" fill="#f5ae78" fill-rule="nonzero" group-id="1,2,3" node-id="64" stroke="#231815" stroke-linecap="round" stroke-width="3" target-height="238.4" target-width="147.59999" target-x="28.8" target-y="138"/><path d="M 176.40 191.90 L 253.80 126.90 L 253.00 304.20 L 176.40 376.40 L 176.40 191.90 Z" fill="#f5ae78" fill-rule="nonzero" group-id="1,2,3" node-id="66" stroke="#231815" stroke-linecap="round" stroke-width="3" target-height="249.5" target-width="77.40001" target-x="176.4" target-y="126.9"/><path d="M 66.70 256.80 L 66.00 260.50 L 63.80 263.70 L 60.60 265.80 L 56.90 266.60 L 53.10 265.80 L 49.90 263.70 L 47.80 260.50 L 47.10 256.80 L 47.80 253.00 L 49.90 249.80 L 53.10 247.70 L 56.90 246.90 L 60.60 247.70 L 63.80 249.80 L 66.00 253.00 L 66.70 256.80 Z" fill="#db5c39" fill-rule="nonzero" group-id="1,2,3" node-id="68" stroke="#231815" stroke-linecap="round" stroke-width="3" target-height="19.700012" target-width="19.599998" target-x="47.1" target-y="246.9"/><path d="M 107.60 272.00 L 106.80 275.70 L 104.70 278.90 L 101.50 281.10 L 97.70 281.80 L 94.00 281.10 L 90.80 278.90 L 88.70 275.70 L 87.90 272.00 L 88.70 268.20 L 90.80 265.00 L 94.00 262.90 L 97.70 262.20 L 101.50 262.90 L 104.70 265.00 L 106.80 268.20 L 107.60 272.00 Z" fill="#db5c39" fill-rule="nonzero" group-id="1,2,3" node-id="70" stroke="#231815" stroke-linecap="round" stroke-width="3" target-height="19.599976" target-width="19.699997" target-x="87.9" target-y="262.2"/><path d="M 151.20 286.90 L 150.50 290.30 L 149.80 291.80 L 148.30 293.80 L 146.30 295.30 L 144.80 296.10 L 141.30 296.70 L 137.90 296.10 L 136.40 295.30 L 134.40 293.80 L 132.90 291.80 L 132.10 290.30 L 131.50 286.90 L 132.10 283.40 L 132.90 281.90 L 134.40 279.90 L 136.40 278.40 L 137.90 277.70 L 141.30 277.00 L 144.80 277.70 L 146.30 278.40 L 148.30 279.90 L 149.80 281.90 L 150.50 283.40 L 151.20 286.90 Z" fill="#db5c39" fill-rule="nonzero" group-id="1,2,3" node-id="72" stroke="#231815" stroke-linecap="round" stroke-width="3" target-height="19.700012" target-width="19.699997" target-x="131.5" target-y="277"/><path d="M 194.30 258.90 L 225.40 236.90 L 227.70 236.00 L 228.90 235.90 L 230.00 236.40 L 230.90 237.90 L 231.20 242.50 L 230.00 251.40 L 228.70 256.60 L 226.10 263.30 L 224.30 266.60 L 222.20 269.60 L 219.80 272.30 L 217.00 274.60 L 213.90 276.40 L 211.00 277.40 L 208.30 277.90 L 205.50 277.80 L 203.00 277.30 L 200.70 276.40 L 196.70 273.80 L 195.10 272.20 L 193.00 268.60 L 192.20 264.70 L 192.30 262.50 L 192.70 261.10 L 194.30 258.90 Z" fill="none" group-id="1,2,3" node-id="74" stroke="#231815" stroke-linecap="round" stroke-width="3" target-height="42" target-width="39" target-x="192.2" target-y="235.9"/><path d="M 224.40 237.60 L 223.60 246.70 L 222.80 250.70 L 220.40 258.30 L 217.30 264.20 L 215.20 266.90 L 212.80 269.30 L 210.00 271.50 L 206.90 273.30 L 203.30 274.60 L 199.00 275.50 L 196.10 273.10 L 194.40 271.20 L 192.80 268.20 L 192.10 264.40 L 192.50 262.30 L 193.30 259.80 L 224.40 237.60 Z" fill="#db5c39" fill-rule="nonzero" group-id="1,2,3" node-id="76" stroke="#231815" stroke-linecap="round" stroke-width="3" target-height="37.899994" target-width="32.299988" target-x="192.1" target-y="237.6"/><path d="M 176.40 191.90 L 176.40 200.60 L 205.00 227.30 L 207.60 228.60 L 209.30 228.90 L 211.20 228.80 L 213.80 227.70 L 280.10 162.70 L 280.10 152.60 L 253.90 126.90 Z" fill="#db5c39" fill-rule="nonzero" group-id="1,2,3" node-id="78" stroke="#231815" stroke-linecap="round" stroke-width="3" target-height="101.99999" target-width="103.70001" target-x="176.4" target-y="126.9"/><path d="M 176.40 191.90 L 208.00 220.40 L 210.30 220.90 L 212.10 220.50 L 214.00 219.40 L 216.70 217.30 L 279.00 156.90 L 280.00 155.20 L 280.10 154.00 L 279.60 152.40 L 278.60 150.80 L 253.80 127.00 Z" fill="#f5ae78" fill-rule="nonzero" group-id="1,2,3" node-id="80" stroke="#231815" stroke-linecap="round" stroke-width="3" target-height="93.899994" target-width="103.70001" target-x="176.4" target-y="127"/><path d="M 2.20 169.90 L 1.50 173.40 L 1.60 175.80 L 2.50 179.10 L 4.60 182.40 L 6.40 184.00 L 8.90 185.50 L 132.30 241.60 L 135.30 242.40 L 139.60 242.60 L 143.30 241.70 L 145.80 239.60 L 176.40 200.60 L 176.40 191.90 L 28.80 138.00 Z" fill="#db5c39" fill-rule="nonzero" group-id="1,2,3" node-id="82" stroke="#231815" stroke-linecap="round" stroke-width="3" target-height="104.600006" target-width="174.9" target-x="1.5" target-y="138"/><path d="M 28.80 138.00 L 2.50 170.30 L 2.20 171.70 L 2.60 172.70 L 3.90 174.30 L 9.50 178.30 L 29.40 187.80 L 135.00 234.80 L 136.70 235.10 L 138.50 235.10 L 140.90 234.40 L 144.10 232.20 L 146.10 230.20 L 176.40 191.90 Z" fill="#f5ae78" fill-rule="nonzero" group-id="1,2,3" node-id="84" stroke="#231815" stroke-linecap="round" stroke-width="3" target-height="97.100006" target-width="174.2" target-x="2.2" target-y="138"/></g><g node-id="147"><path d="M 45.00 134.80 L 48.90 117.50 L 52.90 104.30 L 55.50 97.20 L 58.50 90.20 L 62.00 83.40 L 67.30 75.00 L 70.20 71.30 L 73.40 68.00 L 76.70 65.20 L 80.30 62.90 L 83.10 61.50 L 86.10 60.50 L 89.10 59.90 L 92.40 59.70 L 96.40 60.50 L 100.20 62.90 L 102.50 65.10 L 104.70 67.90 L 107.00 71.30 L 109.80 76.90 L 112.50 83.30 L 114.80 90.10 L 116.70 97.30 L 118.30 104.50 L 120.20 118.20 L 120.60 124.10 L 120.50 128.70 L 120.10 132.60 L 118.20 139.30 L 115.50 144.50 L 113.20 147.80 L 108.70 152.00 L 105.40 154.00 Z" fill="#ffcfae" fill-rule="nonzero" group-id="1,2,4" node-id="88" stroke="#231815" stroke-linecap="round" stroke-width="3" target-height="94.3" target-width="75.6" target-x="45" target-y="59.7"/><path d="M 81.20 74.60 L 80.90 75.70 L 80.30 76.60 L 79.40 77.20 L 78.30 77.40 L 77.20 77.20 L 76.30 76.60 L 75.70 75.70 L 75.50 74.60 L 75.70 73.50 L 76.30 72.60 L 77.20 72.00 L 78.30 71.80 L 79.40 72.00 L 80.30 72.60 L 80.90 73.50 L 81.20 74.60 Z" fill="#231815" fill-rule="nonzero" group-id="1,2,4" node-id="90" stroke="none" target-height="5.5999985" target-width="5.699997" target-x="75.5" target-y="71.8"/><path d="M 96.40 75.60 L 96.20 76.70 L 95.60 77.60 L 94.70 78.20 L 93.60 78.40 L 92.50 78.20 L 91.60 77.60 L 91.00 76.70 L 90.80 75.60 L 91.00 74.50 L 91.60 73.60 L 92.50 73.00 L 93.60 72.70 L 94.70 73.00 L 95.60 73.60 L 96.20 74.50 L 96.40 75.60 Z" fill="#231815" fill-rule="nonzero" group-id="1,2,4" node-id="92" stroke="none" target-height="5.7000046" target-width="5.5999985" target-x="90.8" target-y="72.7"/><path d="M 85.50 71.80 L 81.50 67.70 L 78.60 64.10 L 77.50 62.30 L 76.80 60.00 L 77.10 59.30 L 78.60 58.70 L 82.50 59.20 L 80.90 57.80 L 79.40 55.40 L 79.20 54.20 L 79.70 52.30 L 81.20 51.30 L 82.20 51.30 L 84.20 52.50 L 85.50 54.10 L 86.20 50.10 L 87.00 48.20 L 88.80 46.10 L 90.60 45.80 L 92.40 47.00 L 93.60 48.50 L 95.00 51.40 L 96.60 56.40 L 96.20 58.20 L 93.40 63.00 L 89.60 68.00 L 85.50 71.80 Z" fill="#cb3617" fill-rule="nonzero" group-id="1,2,4" node-id="94" stroke="#231815" stroke-linecap="round" stroke-width="3" target-height="26.000004" target-width="19.799995" target-x="76.8" target-y="45.8"/><path d="M 84.10 80.40 L 73.90 85.70 L 84.60 94.00 L 95.20 87.10 L 84.10 80.40 Z" fill="#bf472c" fill-rule="nonzero" group-id="1,2,4" node-id="96" stroke="#231815" stroke-linecap="round" stroke-width="3" target-height="13.599998" target-width="21.299995" target-x="73.9" target-y="80.4"/><path d="M 55.40 120.90 L 54.70 124.90 L 53.70 127.90 L 52.20 129.90" fill="none" group-id="1,2,4" node-id="98" stroke="#231815" stroke-linecap="round" stroke-width="3" target-height="8.999992" target-width="3.2000008" target-x="52.2" target-y="120.9"/><path d="M 68.10 122.80 L 66.90 127.30 L 66.70 129.10 L 66.80 130.90 L 67.20 132.60 L 68.10 133.90" fill="none" group-id="1,2,4" node-id="100" stroke="#231815" stroke-linecap="round" stroke-width="3" target-height="11.099991" target-width="1.4000015" target-x="66.7" target-y="122.8"/><path d="M 81.20 126.90 L 81.30 131.10 L 80.90 132.60 L 80.20 133.90" fill="none" group-id="1,2,4" node-id="102" stroke="#231815" stroke-linecap="round" stroke-width="3" target-height="6.9999924" target-width="1.1000061" target-x="80.2" target-y="126.9"/><path d="M 90.80 125.40 L 89.20 130.40 L 89.10 132.30 L 89.40 133.90" fill="none" group-id="1,2,4" node-id="104" stroke="#231815" stroke-linecap="round" stroke-width="3" target-height="8.499992" target-width="1.7000046" target-x="89.1" target-y="125.4"/><path d="M 97.70 126.90 L 99.30 131.60 L 100.20 133.10 L 101.00 133.90" fill="none" group-id="1,2,4" node-id="106" stroke="#231815" stroke-linecap="round" stroke-width="3" target-height="6.9999924" target-width="3.300003" target-x="97.7" target-y="126.9"/><path d="M 110.70 122.80 L 111.10 125.10 L 111.10 127.30 L 110.70 129.60" fill="none" group-id="1,2,4" node-id="108" stroke="#231815" stroke-linecap="round" stroke-width="3" target-height="6.800003" target-width="0.40000153" target-x="110.7" target-y="122.8"/><path d="M 60.30 125.40 L 59.10 127.50 L 59.40 129.90" fill="none" group-id="1,2,4" node-id="110" stroke="#231815" stroke-linecap="round" stroke-width="3" target-height="4.4999924" target-width="1.2000008" target-x="59.1" target-y="125.4"/></g><g node-id="148"><path d="M 122.50 12.00 L 125.30 8.80 L 127.60 6.80 L 130.30 4.90 L 133.70 3.10 L 138.90 1.70 L 141.90 1.50 L 148.10 2.00 L 151.10 2.80 L 154.10 3.90 L 156.90 5.60 L 159.70 7.90 L 163.30 12.30 L 166.60 18.80 L 168.20 23.70 L 169.50 29.80 L 170.60 37.40 L 171.00 43.60 L 170.70 56.80 L 169.80 66.90 L 166.20 96.50 L 165.40 108.40 L 165.40 113.60 L 165.80 118.80 L 166.80 123.20 L 169.20 130.00 L 169.80 133.10 L 169.70 136.40 L 169.30 139.60 L 167.30 146.10 L 165.00 150.80 L 159.50 159.30 L 156.80 162.80 L 150.20 169.90 L 105.40 153.90 L 105.40 150.40 L 106.00 147.50 L 106.90 144.30 L 110.20 137.40 L 114.90 130.70 L 117.80 127.40 L 130.30 115.60 L 133.90 111.40 L 136.80 107.10 L 139.30 102.50 L 141.10 97.90 L 142.40 93.40 L 143.30 88.80 L 143.80 84.30 L 143.50 75.90 L 142.80 72.00 L 140.70 65.20 L 138.00 60.30 L 135.70 57.70 L 126.90 49.60 L 124.00 46.60 L 121.40 43.20 L 118.70 38.20 L 117.80 35.20 L 117.20 32.30 L 117.20 28.90 L 117.60 25.00 L 118.50 21.30 L 120.10 17.00 L 122.50 12.00 Z" fill="#ffffff" fill-rule="nonzero" group-id="1,2,5" node-id="114" stroke="#231815" stroke-linecap="round" stroke-width="3" target-height="168.4" target-width="65.6" target-x="105.4" target-y="1.5"/><path d="M 138.00 17.30 L 137.80 18.30 L 137.20 19.30 L 136.20 19.90 L 135.20 20.10 L 134.10 19.90 L 133.10 19.30 L 132.50 18.30 L 132.30 17.30 L 132.50 16.20 L 133.10 15.20 L 134.10 14.60 L 135.20 14.40 L 136.20 14.60 L 137.20 15.20 L 137.80 16.20 L 138.00 17.30 Z" fill="#231815" fill-rule="nonzero" group-id="1,2,5" node-id="116" stroke="none" target-height="5.700001" target-width="5.699997" target-x="132.3" target-y="14.4"/><path d="M 125.50 21.00 L 119.10 22.60 L 105.50 25.30 L 95.00 26.50 L 86.10 27.00 L 84.20 27.50 L 83.20 28.10 L 82.90 28.80 L 82.90 29.50 L 83.50 30.70 L 84.90 32.10 L 88.90 34.70 L 93.40 36.70 L 99.60 38.10 L 109.00 39.00 L 114.30 39.10 L 125.80 38.30 L 131.40 37.30 L 136.90 35.80 L 141.90 33.80 L 141.70 32.80 L 140.20 31.20 L 138.40 30.40 L 131.20 28.00 L 128.90 26.90 L 127.10 25.50 L 126.20 24.30 L 125.70 22.90 L 125.50 21.00 Z" fill="#ff9920" fill-rule="nonzero" group-id="1,2,5" node-id="118" stroke="#231815" stroke-linecap="round" stroke-width="3" target-height="18.099998" target-width="58.999992" target-x="82.9" target-y="21"/></g><g node-id="149"><path d="M 151.40 168.50 L 153.10 147.30 L 155.50 131.00 L 157.30 122.30 L 159.50 113.60 L 162.20 105.30 L 166.70 94.90 L 169.20 90.40 L 172.20 86.10 L 175.40 82.60 L 178.80 79.70 L 181.60 78.00 L 184.60 76.70 L 187.70 75.90 L 191.20 75.50 L 195.20 76.00 L 198.00 76.90 L 201.80 79.10 L 203.90 81.00 L 205.80 83.10 L 207.50 85.80 L 209.20 89.40 L 210.40 93.20 L 211.40 97.90 L 212.50 111.30 L 214.10 122.10 L 215.70 128.60 L 217.20 132.80 L 218.90 136.30 L 221.20 139.40 L 173.80 178.20 Z" fill="#e15c3d" fill-rule="nonzero" group-id="1,2,6" node-id="122" stroke="#231815" stroke-linecap="round" stroke-width="3" target-height="102.7" target-width="69.8" target-x="151.4" target-y="75.5"/><path d="M 182.60 98.70 L 178.30 99.20 L 176.30 99.90 L 173.80 101.50 L 173.10 103.20 L 173.90 105.00 L 176.40 106.90 L 178.50 107.70 L 182.60 108.40 L 186.90 107.90 L 189.20 107.20 L 192.10 105.50 L 193.00 103.60 L 192.10 101.60 L 189.30 99.90 L 187.00 99.20 L 182.60 98.70 Z" fill="#cb3617" fill-rule="nonzero" group-id="1,2,6" node-id="124" stroke="#231815" stroke-linecap="round" stroke-width="3" target-height="9.700005" target-width="19.899994" target-x="173.1" target-y="98.7"/><path d="M 159.90 147.70 L 158.90 152.10 L 158.80 154.00 L 159.40 158.20 L 160.30 160.10" fill="none" group-id="1,2,6" node-id="126" stroke="#231815" stroke-linecap="round" stroke-width="3" target-height="12.400009" target-width="1.5" target-x="158.8" target-y="147.7"/><path d="M 168.10 148.50 L 168.60 155.10 L 169.70 158.50 L 170.60 159.40" fill="none" group-id="1,2,6" node-id="128" stroke="#231815" stroke-linecap="round" stroke-width="3" target-height="10.899994" target-width="2.5" target-x="168.1" target-y="148.5"/><path d="M 179.40 147.70 L 180.60 153.10 L 180.20 156.20 L 179.40 157.40" fill="none" group-id="1,2,6" node-id="130" stroke="#231815" stroke-linecap="round" stroke-width="3" target-height="9.699997" target-width="1.2000122" target-x="179.4" target-y="147.7"/><path d="M 187.70 145.90 L 189.60 150.20 L 190.00 152.10 L 189.90 155.50 L 188.70 158.00" fill="none" group-id="1,2,6" node-id="132" stroke="#231815" stroke-linecap="round" stroke-width="3" target-height="12.100006" target-width="2.300003" target-x="187.7" target-y="145.9"/><path d="M 197.90 145.90 L 197.20 149.60 L 197.10 152.80 L 197.90 155.60" fill="none" group-id="1,2,6" node-id="134" stroke="#231815" stroke-linecap="round" stroke-width="3" target-height="9.700012" target-width="0.7999878" target-x="197.1" target-y="145.9"/><path d="M 204.70 145.90 L 204.10 147.40 L 203.90 148.90 L 204.20 150.40 L 204.80 151.90" fill="none" group-id="1,2,6" node-id="136" stroke="#231815" stroke-linecap="round" stroke-width="3" target-height="6" target-width="0.90000916" target-x="203.9" target-y="145.9"/><path d="M 197.70 92.40 L 197.50 93.70 L 196.80 94.70 L 195.70 95.40 L 194.40 95.70 L 193.20 95.40 L 192.10 94.70 L 191.40 93.70 L 191.20 92.40 L 191.40 91.10 L 192.10 90.10 L 193.20 89.40 L 194.40 89.10 L 195.70 89.40 L 196.80 90.10 L 197.50 91.10 L 197.70 92.40 Z" fill="#231815" fill-rule="nonzero" group-id="1,2,6" node-id="138" stroke="none" target-height="6.5999985" target-width="6.5" target-x="191.2" target-y="89.1"/><path d="M 179.70 92.40 L 179.40 93.70 L 178.70 94.70 L 177.70 95.40 L 176.40 95.70 L 175.10 95.40 L 174.10 94.70 L 173.40 93.70 L 173.10 92.40 L 173.40 91.10 L 174.10 90.10 L 175.10 89.40 L 176.40 89.10 L 177.70 89.40 L 178.70 90.10 L 179.40 91.10 L 179.70 92.40 Z" fill="#231815" fill-rule="nonzero" group-id="1,2,6" node-id="140" stroke="none" target-height="6.5999985" target-width="6.599991" target-x="173.1" target-y="89.1"/><path d="M 183.10 87.70 L 177.70 84.50 L 173.60 81.10 L 171.90 79.10 L 170.90 77.00 L 170.60 75.50 L 170.70 74.10 L 171.30 72.60 L 172.20 71.20 L 174.00 69.90 L 175.40 69.70 L 178.10 70.60 L 181.70 74.20 L 180.90 67.80 L 180.90 62.50 L 181.30 60.00 L 182.00 58.10 L 182.70 57.20 L 183.60 56.60 L 184.70 56.50 L 186.10 56.90 L 188.10 58.30 L 189.00 59.80 L 189.40 61.60 L 189.50 66.20 L 191.20 59.80 L 193.20 56.80 L 194.50 56.00 L 195.50 55.80 L 198.10 56.50 L 199.70 57.70 L 201.90 60.60 L 202.90 63.10 L 203.30 65.90 L 203.20 68.60 L 202.70 71.10 L 201.80 73.40 L 200.60 75.10 L 197.20 78.60 L 190.10 84.30 L 185.20 87.10 L 183.10 87.70 Z" fill="#cb3617" fill-rule="nonzero" group-id="1,2,6" node-id="142" stroke="#231815" stroke-linecap="round" stroke-width="3" target-height="31.899998" target-width="32.699997" target-x="170.6" target-y="55.8"/></g></g></g></svg>